<?xml version="1.0" encoding="utf-8"?>
<!-- Generator: Adobe Illustrator 27.1.1, SVG Export Plug-In . SVG Version: 6.00 Build 0)  -->
<svg version="1.1" id="Layer_1" xmlns="http://www.w3.org/2000/svg" xmlns:xlink="http://www.w3.org/1999/xlink" x="0px" y="0px"
	 viewBox="0 0 80.8 77.1" style="enable-background:new 0 0 80.8 77.1;" xml:space="preserve">
<style type="text/css">
	.st0{fill:#F21C0A;}
</style>
<path class="st0" d="M5.7,49.3L29,52.7l10.4,21.1c0.2,0.3,0.5,0.6,0.9,0.6c0.4,0,0.7-0.2,0.9-0.6l10.4-21.1l23.4-3.4
	c0.4-0.1,0.7-0.3,0.8-0.7c0.1-0.4,0-0.8-0.3-1L58.6,31.2l4-23.3c0.1-0.4-0.1-0.8-0.4-1c-0.3-0.2-0.7-0.3-1.1-0.1L40.3,17.9l-20.9-11
	c-0.3-0.2-0.7-0.1-1.1,0.1c-0.3,0.2-0.5,0.6-0.4,1l4,23.3L5.2,47.6c-0.3,0.3-0.4,0.7-0.3,1C4.9,49,5.3,49.2,5.7,49.3z"/>
</svg>
