<?xml version="1.0" encoding="utf-8"?>
<!-- Generator: Adobe Illustrator 27.1.1, SVG Export Plug-In . SVG Version: 6.00 Build 0)  -->
<svg version="1.1" id="Layer_1" xmlns="http://www.w3.org/2000/svg" xmlns:xlink="http://www.w3.org/1999/xlink" x="0px" y="0px"
	 viewBox="0 0 333.3 324" style="enable-background:new 0 0 333.3 324;" xml:space="preserve">
<g>
	<path d="M182,21.1l37.3,79.5c0.3,0.6,0.7,1.1,1.1,1.4l0.2,0.2c0.4,0.2,0.9,0.4,1.4,0.5l87.2,10.9l0.8,0.1c3,0.5,5.8,1.8,8,3.6
		c2.4,2,4.3,4.7,5.3,7.9c1,3.2,1.1,6.4,0.3,9.5l-0.1,0.3c-0.8,2.9-2.4,5.6-4.8,7.8l-64,60.1c-0.5,0.5-0.9,1-1,1.5s-0.2,1.2-0.1,1.8
		l16.5,86.2c0.6,3.3,0.3,6.5-0.9,9.5l-0.3,0.7c-1.2,2.6-3.1,5-5.5,6.8c-2.7,2-5.8,3-8.9,3.2c-3.1,0.2-6.3-0.5-9.2-2.1l-76.9-42.4
		c-0.6-0.3-1.2-0.5-1.8-0.5s-1.2,0.2-1.8,0.5l-76.9,42.4c-2.9,1.6-6.1,2.3-9.2,2.1c-3.2-0.2-6.2-1.3-8.9-3.2c-2.7-2-4.7-4.5-5.9-7.5
		c-1.2-2.9-1.5-6.2-0.8-9.5l16.5-86.2c0.1-0.7,0.1-1.3-0.1-1.8l-0.1-0.2c-0.2-0.5-0.5-0.9-1-1.4l-64.1-60.1
		c-2.4-2.3-4.1-5.1-4.9-8.1L9.4,134c-0.6-2.9-0.5-5.9,0.5-8.8c1-3.2,2.9-5.9,5.3-7.9c2.4-2,5.4-3.3,8.8-3.7l87.4-11
		c0.5-0.1,1-0.3,1.4-0.6c0.5-0.3,0.9-0.8,1.1-1.4l37.3-79.5c1.4-3,3.6-5.5,6.2-7.2l0.6-0.3c2.6-1.5,5.5-2.3,8.6-2.3
		c3.3,0,6.5,0.9,9.1,2.6l0.6,0.4C178.7,16,180.7,18.3,182,21.1L182,21.1z M207.4,106.2L170,26.7c-0.3-0.6-0.7-1.1-1.1-1.4l-0.2-0.1
		c-0.5-0.3-1.2-0.5-2-0.5c-0.7,0-1.3,0.1-1.8,0.4l-0.2,0.2c-0.6,0.4-1,0.9-1.3,1.6L126,106.2c-1.3,2.7-3.1,4.9-5.4,6.6
		c-2.1,1.5-4.5,2.5-7.2,3l-87.8,11.1c-0.7,0.1-1.4,0.4-1.9,0.8c-0.5,0.4-0.9,1-1.1,1.7c-0.2,0.6-0.2,1.2-0.2,1.8l0.1,0.3
		c0.2,0.6,0.5,1.2,1.1,1.8l64.1,60.1c2,1.9,3.5,4.2,4.4,6.7l0.1,0.4c0.9,2.7,1.1,5.5,0.5,8.4L76.2,295c-0.1,0.7-0.1,1.4,0.2,2.1
		c0.2,0.6,0.7,1.2,1.3,1.6c0.6,0.5,1.3,0.7,1.9,0.7c0.7,0,1.4-0.1,2-0.5l76.9-42.4c2.6-1.4,5.4-2.2,8.2-2.2c2.8,0,5.6,0.7,8.2,2.2
		l76.9,42.4c0.7,0.4,1.4,0.5,2,0.5c0.6,0,1.3-0.3,1.9-0.7c0.5-0.4,0.9-0.8,1.2-1.3l0.1-0.3c0.2-0.6,0.3-1.3,0.2-2.1l-16.5-86.2
		c-0.6-2.9-0.4-5.8,0.5-8.4s2.4-5.1,4.6-7.1l64.1-60.1c0.5-0.5,0.9-1,1-1.6l0-0.2c0.2-0.6,0.1-1.3-0.1-2.1c-0.2-0.7-0.6-1.3-1.1-1.7
		c-0.4-0.4-1-0.6-1.5-0.7l-87.5-11c-2.7-0.4-5.2-1.3-7.3-2.7l-0.6-0.4C210.5,111.1,208.7,108.9,207.4,106.2L207.4,106.2z"/>
</g>
</svg>
