<?xml version="1.0" encoding="utf-8"?>
<!-- Generator: Adobe Illustrator 27.1.1, SVG Export Plug-In . SVG Version: 6.00 Build 0)  -->
<svg version="1.1" id="Layer_1" xmlns="http://www.w3.org/2000/svg" xmlns:xlink="http://www.w3.org/1999/xlink" x="0px" y="0px"
	 viewBox="0 0 71.2 68.4" style="enable-background:new 0 0 71.2 68.4;" xml:space="preserve">
<style type="text/css">
	.st0{stroke:#000000;stroke-miterlimit:10;}
</style>
<path class="st0" d="M2.1,43.4l22.6,3.3l10.1,20.4c0.2,0.3,0.5,0.6,0.9,0.6s0.7-0.2,0.9-0.6l10.1-20.4l22.6-3.3
	c0.4-0.1,0.7-0.3,0.8-0.7c0.1-0.4,0-0.8-0.3-1L53.3,25.9l3.9-22.5c0.1-0.4-0.1-0.8-0.4-1c-0.3-0.2-0.7-0.3-1.1-0.1L35.6,13L15.4,2.4
	c-0.3-0.2-0.7-0.1-1.1,0.1c-0.3,0.2-0.5,0.6-0.4,1l3.9,22.5L1.6,41.8c-0.3,0.3-0.4,0.7-0.3,1C1.4,43.1,1.7,43.3,2.1,43.4z
	 M19.6,26.9c0.2-0.2,0.3-0.6,0.3-0.9L16.3,5l18.8,10c0.3,0.2,0.6,0.2,0.9,0l18.9-9.9l-3.6,21c-0.1,0.3,0.1,0.7,0.3,0.9l15.3,14.9
	L45.8,45c-0.3,0-0.6,0.3-0.8,0.5l-9.4,19.1l-9.4-19.1c-0.1-0.3-0.4-0.5-0.8-0.5L4.3,41.9L19.6,26.9z"/>
</svg>
