<?xml version="1.0" encoding="utf-8"?>
<!-- Generator: Adobe Illustrator 27.1.1, SVG Export Plug-In . SVG Version: 6.00 Build 0)  -->
<svg version="1.1" id="Layer_1" xmlns="http://www.w3.org/2000/svg" xmlns:xlink="http://www.w3.org/1999/xlink" x="0px" y="0px"
	 viewBox="0 0 71.2 68.4" style="enable-background:new 0 0 71.2 68.4;" xml:space="preserve">
<style type="text/css">
	.st0{fill:#F21C0A;stroke:#F21C0A;stroke-width:1.9376;stroke-miterlimit:10;}
</style>
<path class="st0" d="M3.1,43.1L25,46.3l9.8,19.8c0.2,0.3,0.5,0.6,0.9,0.6s0.7-0.2,0.9-0.6l9.8-19.8l21.9-3.2
	c0.4-0.1,0.7-0.3,0.8-0.7c0.1-0.4,0-0.8-0.3-1l-16-15.3l3.8-21.8c0.1-0.4-0.1-0.8-0.4-1c-0.3-0.2-0.7-0.3-1.1-0.1L35.6,13.7L16,3.4
	c-0.3-0.2-0.7-0.1-1.1,0.1c-0.3,0.2-0.5,0.6-0.4,1l3.8,21.8L2.7,41.6c-0.3,0.3-0.4,0.7-0.3,1S2.8,43,3.1,43.1z M20.1,27.2
	c0.2-0.2,0.3-0.6,0.3-0.9L16.9,5.9l18.2,9.7c0.3,0.2,0.6,0.2,0.9,0L54.3,6l-3.5,20.3c-0.1,0.3,0.1,0.7,0.3,0.9l14.8,14.4l-20.4,3
	c-0.3,0-0.6,0.3-0.8,0.5l-9.1,18.5l-9.1-18.5c-0.1-0.3-0.4-0.5-0.8-0.5l-20.4-3L20.1,27.2z"/>
</svg>
